<svg id="Layer_1" data-name="Layer 1" xmlns="http://www.w3.org/2000/svg" viewBox="0 0 46.48 67.98"><defs><style>.cls-1{fill:#b97dda;}</style></defs><title>Zurnergy Media</title><path class="cls-1" d="M5.63,13.36h7.22v3.81H.34V13.56l7.1-9.75h-7V0H12.83V3.61Z"/><path class="cls-1" d="M20,0V9.8A3.44,3.44,0,0,0,20.62,12a2.36,2.36,0,0,0,1.95.79,2.43,2.43,0,0,0,2-.8,3.37,3.37,0,0,0,.67-2.23V0H30V9.8a8.16,8.16,0,0,1-1,4.12,6.47,6.47,0,0,1-2.68,2.56,8.4,8.4,0,0,1-3.83.86,8,8,0,0,1-3.77-.85,6.05,6.05,0,0,1-2.56-2.55,8.5,8.5,0,0,1-.92-4.14V0Z"/><path class="cls-1" d="M41.22,17.17l-3.47-6.33h-.48v6.33H32.49V0H40a7.79,7.79,0,0,1,3.51.72,5,5,0,0,1,2.17,2,5.64,5.64,0,0,1,.73,2.84,5.08,5.08,0,0,1-1,3.12,5.28,5.28,0,0,1-2.86,1.85l3.9,6.67ZM37.27,7.64h2.35c1.33,0,2-.6,2-1.8a1.78,1.78,0,0,0-.5-1.33A2.07,2.07,0,0,0,39.62,4H37.27Z"/><path class="cls-1" d="M16.34,42.51H11.57L5.26,32.94v9.57H.48V25.37H5.26l6.31,9.7v-9.7h4.77Z"/><path class="cls-1" d="M23.76,29.15V32h5.56V35.6H23.76v3.11H30v3.8H19V25.35H30v3.8Z"/><path class="cls-1" d="M41,42.51l-3.46-6.32H37v6.32H32.22V25.35h7.55a7.78,7.78,0,0,1,3.5.71,5,5,0,0,1,2.17,2,5.6,5.6,0,0,1,.73,2.83,5,5,0,0,1-1,3.12,5.25,5.25,0,0,1-2.86,1.86l3.91,6.66ZM37,33h2.35c1.33,0,2-.59,2-1.79a1.76,1.76,0,0,0-.49-1.33,2.05,2.05,0,0,0-1.5-.49H37Z"/><path class="cls-1" d="M14,52.15a6.46,6.46,0,0,1,2.55,4.31h-5a2.77,2.77,0,0,0-1.14-1.11,3.56,3.56,0,0,0-1.77-.41,3.5,3.5,0,0,0-2.77,1.17,4.59,4.59,0,0,0-1,3.14,4.66,4.66,0,0,0,1.1,3.38,4.26,4.26,0,0,0,3.24,1.16,4,4,0,0,0,2.13-.58,4,4,0,0,0,1.45-1.73H8V58.09h8.71v4.73a9,9,0,0,1-3,3.65A8.28,8.28,0,0,1,8.66,68a9.28,9.28,0,0,1-4.59-1.1,7.53,7.53,0,0,1-3-3.09A9.48,9.48,0,0,1,0,59.25a9.37,9.37,0,0,1,1.06-4.52,7.58,7.58,0,0,1,3-3.08,9.11,9.11,0,0,1,4.56-1.1A8.64,8.64,0,0,1,14,52.15Z"/><path class="cls-1" d="M34.5,50.69,28.44,62.41v5.45H23.69V62.41L17.63,50.69h5.45l3,6.55,3-6.55Z"/><circle class="cls-1" cx="40.76" cy="62.26" r="5.72"/></svg>